<svg width="201" height="32" viewBox="0 0 201 32" fill="none" xmlns="http://www.w3.org/2000/svg">
<g clip-path="url(#clip0_78_4)">
<path d="M0.71 0.0499256C1.09 0.229926 1.47 0.419926 1.84 0.599926C3.6 1.44993 5.35 2.30993 7.11 3.15993C9.55 4.33993 11.98 5.52993 14.42 6.70993C16.7 7.81993 18.98 8.92992 21.26 10.0299C23 10.8799 24.74 11.7699 26.54 12.4899C25.26 12.2299 23.91 12.6199 22.73 13.1199C21.71 13.5599 20.73 14.0999 19.72 14.5699C18.62 15.0799 17.35 15.0799 16.24 14.5899L6.22 10.1399C2.44 8.46993 0 4.67993 0 0.499926C0 0.129926 0.38 -0.110074 0.71 0.0499256Z" fill="url(#paint0_linear_78_4)"/>
<path d="M31.3 17.1699L4.3 30.3599L1.11 31.9199C0.6 32.1699 0 31.7899 0 31.2199V30.1299C0 27.0799 1.67 24.2999 4.3 22.8799C4.48 22.7799 4.66 22.6999 4.84 22.6099L19.4 15.9999L24 13.9399C24.34 13.7899 24.69 13.6699 25.05 13.5799C25.75 13.3999 26.47 13.3399 27.19 13.3999C27.98 13.4699 28.75 13.6799 29.48 14.0299L31.3 14.9099C32.24 15.3699 32.24 16.7199 31.3 17.1699Z" fill="url(#paint1_linear_78_4)"/>
</g>
<defs>
<linearGradient id="paint0_linear_78_4" x1="13.27" y1="14.9599" x2="13.27" y2="-7.45392e-05" gradientUnits="userSpaceOnUse">
<stop stop-color="#3547FF"/>
<stop offset="1" stop-color="#8903FF"/>
</linearGradient>
<linearGradient id="paint1_linear_78_4" x1="-0.94" y1="29.9999" x2="30.06" y2="13.4999" gradientUnits="userSpaceOnUse">
<stop stop-color="#8903FF"/>
<stop offset="1" stop-color="#3547FF"/>
</linearGradient>
<clipPath id="clip0_78_4">
<rect width="200.66" height="32" fill="white"/>
</clipPath>
</defs>
</svg>
