<svg width="32" height="33" viewBox="0 0 32 33" fill="none" xmlns="http://www.w3.org/2000/svg">
<g clip-path="url(#clip0_79_715)">
<path d="M32 16.5C32 20.7435 30.3143 24.8131 27.3137 27.8137C24.3131 30.8143 20.2435 32.5 16 32.5C11.7565 32.5 7.68687 30.8143 4.68629 27.8137C1.68571 24.8131 0 20.7435 0 16.5C0 12.2565 1.68571 8.18687 4.68629 5.18629C7.68687 2.18571 11.7565 0.5 16 0.5C20.2435 0.5 24.3131 2.18571 27.3137 5.18629C30.3143 8.18687 32 12.2565 32 16.5ZM16 8.5C15.7472 8.50014 15.4973 8.55324 15.2662 8.65586C15.0352 8.75848 14.8283 8.90835 14.6587 9.09582C14.4891 9.2833 14.3607 9.50421 14.2817 9.74433C14.2027 9.98446 14.1749 10.2385 14.2 10.49L14.9 17.504C14.9235 17.7795 15.0496 18.0362 15.2533 18.2233C15.457 18.4103 15.7235 18.5141 16 18.5141C16.2765 18.5141 16.543 18.4103 16.7467 18.2233C16.9504 18.0362 17.0765 17.7795 17.1 17.504L17.8 10.49C17.8251 10.2385 17.7973 9.98446 17.7183 9.74433C17.6393 9.50421 17.5109 9.2833 17.3413 9.09582C17.1717 8.90835 16.9648 8.75848 16.7338 8.65586C16.5027 8.55324 16.2528 8.50014 16 8.5ZM16.004 20.5C15.4736 20.5 14.9649 20.7107 14.5898 21.0858C14.2147 21.4609 14.004 21.9696 14.004 22.5C14.004 23.0304 14.2147 23.5391 14.5898 23.9142C14.9649 24.2893 15.4736 24.5 16.004 24.5C16.5344 24.5 17.0431 24.2893 17.4182 23.9142C17.7933 23.5391 18.004 23.0304 18.004 22.5C18.004 21.9696 17.7933 21.4609 17.4182 21.0858C17.0431 20.7107 16.5344 20.5 16.004 20.5Z" fill="white"/>
</g>
<defs>
<clipPath id="clip0_79_715">
<rect width="32" height="32" fill="white" transform="translate(0 0.5)"/>
</clipPath>
</defs>
</svg>
